<svg xmlns="http://www.w3.org/2000/svg" data-name="圖層_1" viewBox="0 0 103.4 103.3"><path fill="#fff" d="M83.2 59.8c9.6 3.1 16.4 4.1 19.8 4.3v-9.7c-2.2.3-5.8.9-10.5 2.2-2.5.7-5.6 1.7-9.3 3.2M36.3 35.9c.4-.2.9-.4 1.3-.7q4.8-2.55 9.6-5.7c.9-.6 1.8-1.1 2.7-1.7C25 13.3 7.1 10.5 1 10v13.7c2.2.3 6 .9 11.1 2.3 5.7 1.6 14.1 4.6 24.2 10ZM76.1 43.3c.3-.1.7-.2 1-.4-2.9-1.3-6-2.8-9.4-4.5-.4.2-.9.4-1.3.7-3.2 1.7-6.4 3.7-9.6 5.7-.9.6-1.8 1.1-2.7 1.7 2.3 1.4 4.6 2.6 6.8 3.8 5.1-2.7 10.2-5 15.1-6.9ZM11.5 56.6c-4.8-1.4-8.3-2-10.5-2.2v9.7c3.4-.3 10.2-1.2 19.8-4.3-3.7-1.4-6.8-2.5-9.3-3.2"/><path fill="#fff" d="M52 29.2c-1.2.7-2.4 1.5-3.6 2.3-3.4 2.1-6.6 4-9.7 5.7q-6.3 3.45-11.7 5.7c.3.1.7.2 1 .4 5 2 10 4.3 15.1 6.9q4.35-2.25 9-5.1c1.2-.7 2.4-1.5 3.6-2.3 3.4-2.1 6.6-4.1 9.7-5.7 11.2-6.1 20.3-9.4 26.5-11.2 5.1-1.4 8.9-2.1 11.1-2.3V9.9c-6.3.5-25 3.5-51 19.2ZM67.7 67c-.4.2-.9.4-1.3.7-3.2 1.7-6.4 3.7-9.6 5.7-.9.6-1.8 1.1-2.7 1.7C78.9 89.6 96.8 92.3 103 92.8V79.1c-2.1-.2-5.7-.8-10.5-2.1-5.9-1.6-14.4-4.6-24.8-10M12.1 54.5c5.7 1.6 14.1 4.6 24.2 10 .4-.2.9-.4 1.3-.7q4.8-2.55 9.6-5.7c.9-.6 1.8-1.1 2.7-1.7-8.5-5-16.1-8.6-22.8-11.2C14.2 40.1 5 38.8 1 38.4v13.7c2.2.3 6 .9 11.1 2.3Z"/><path fill="#fff" d="M52 73.7c1.2-.7 2.4-1.5 3.6-2.3 3.4-2.1 6.6-4.1 9.7-5.7 11.2-6.1 20.3-9.4 26.5-11.2 5.1-1.4 8.9-2.1 11.1-2.3V38.5c-4.1.4-13.2 1.7-26.1 6.8-7.2 2.8-15.6 6.8-24.9 12.4-1.2.7-2.4 1.5-3.6 2.3-3.4 2.1-6.6 4-9.7 5.7C27.1 72 17.8 75.2 11.4 77 6.6 78.3 3.1 78.8.9 79.1v13.7c6.4-.5 25.1-3.3 51-19Z"/></svg>